<?xml version="1.0" standalone="no"?>
<!DOCTYPE svg PUBLIC "-//W3C//DTD SVG 20010904//EN"
 "http://www.w3.org/TR/2001/REC-SVG-20010904/DTD/svg10.dtd">
<svg version="1.0" xmlns="http://www.w3.org/2000/svg"
 viewBox="0 0 300 150" xml:space="preserve"
>

<g transform="translate(0.000000,155.000000) scale(0.100000,-0.100000)"
fill="#000000" stroke="none">
<path d="M70 780 l0 -700 700 0 700 0 0 700 0 700 -700 0 -700 0 0 -700z
m1250 -5 l0 -545 -545 0 -545 0 0 545 0 545 545 0 545 0 0 -545z"/>
<path d="M850 846 c0 -231 -1 -245 -21 -270 -17 -22 -28 -26 -72 -26 -29 0
-89 -3 -134 -7 l-83 -6 0 -73 0 -74 131 0 c154 0 195 10 253 62 75 65 80 86
84 381 l4 257 -81 0 -81 0 0 -244z"/>
<path d="M1556 1359 c-49 -38 -25 -110 41 -125 104 -23 101 -22 135 -87 23
-44 55 -153 113 -382 73 -293 82 -321 105 -332 19 -10 120 -12 432 -11 346 3
410 5 422 18 9 9 39 124 71 270 60 272 61 290 13 309 -13 5 -243 40 -512 78
l-488 68 -38 76 c-21 41 -45 81 -53 88 -16 12 -163 51 -196 51 -10 0 -30 -9
-45 -21z m133 -56 l75 -18 39 -86 c33 -72 45 -88 66 -92 14 -3 244 -36 511
-73 267 -37 487 -69 489 -71 3 -2 -20 -111 -49 -243 l-54 -240 -395 2 -394 3
-82 315 c-61 236 -90 333 -118 387 -39 77 -43 79 -149 99 -23 3 -38 12 -38 20
0 18 10 18 99 -3z"/>
<path d="M2320 921 c0 -25 -26 -34 -50 -19 -17 11 -23 9 -42 -10 -19 -19 -21
-25 -10 -42 15 -24 7 -46 -19 -53 -14 -4 -19 -14 -19 -37 0 -23 5 -33 19 -37
22 -6 38 -36 22 -41 -17 -6 -13 -27 7 -46 13 -11 28 -14 51 -10 27 6 33 3 38
-14 6 -25 21 -32 56 -25 17 3 27 12 27 23 0 21 34 32 49 17 8 -8 18 -4 35 12
21 20 23 26 13 43 -10 17 -8 23 16 42 34 28 36 63 3 72 -30 7 -39 29 -24 54
11 17 9 23 -10 42 -17 17 -24 20 -34 10 -19 -19 -38 -14 -48 13 -8 20 -16 25
-45 25 -28 0 -35 -4 -35 -19z m69 -96 c71 -36 46 -139 -34 -139 -97 0 -99 146
-2 153 4 1 21 -6 36 -14z"/>
<path d="M2074 390 c-62 -25 -85 -119 -41 -173 29 -37 103 -49 142 -23 112 74
23 246 -101 196z m80 -66 c40 -39 -4 -105 -56 -85 -32 12 -42 48 -22 78 17 27
55 30 78 7z"/>
<path d="M2564 391 c-68 -29 -87 -130 -35 -182 24 -24 38 -29 76 -29 38 0 52
5 76 29 61 61 24 175 -61 186 -19 3 -45 1 -56 -4z m81 -71 c15 -16 17 -26 9
-47 -17 -49 -87 -48 -100 2 -13 53 54 86 91 45z"/>
</g>
</svg>
